<svg width="21" height="21" viewBox="0 0 21 21" fill="none" xmlns="http://www.w3.org/2000/svg">
<path d="M10.353 7.247C9.73869 7.247 9.13818 7.42916 8.6274 7.77046C8.11662 8.11175 7.71852 8.59684 7.48343 9.16438C7.24834 9.73193 7.18683 10.3564 7.30668 10.959C7.42653 11.5615 7.72234 12.1149 8.15673 12.5493C8.59111 12.9837 9.14454 13.2795 9.74705 13.3993C10.3496 13.5192 10.9741 13.4577 11.5416 13.2226C12.1092 12.9875 12.5943 12.5894 12.9355 12.0786C13.2768 11.5678 13.459 10.9673 13.459 10.353C13.4591 9.94508 13.3789 9.54113 13.2228 9.16423C13.0668 8.78733 12.838 8.44488 12.5496 8.15643C12.2611 7.86799 11.9187 7.63921 11.5418 7.48316C11.1649 7.32712 10.7609 7.24687 10.353 7.247ZM10.353 5.177C11.3767 5.177 12.3774 5.48057 13.2286 6.04931C14.0798 6.61806 14.7432 7.42644 15.135 8.37223C15.5268 9.31802 15.6293 10.3587 15.4295 11.3628C15.2298 12.3668 14.7369 13.2891 14.013 14.013C13.2891 14.7369 12.3668 15.2298 11.3628 15.4295C10.3587 15.6293 9.31802 15.5268 8.37223 15.135C7.42644 14.7432 6.61806 14.0798 6.04931 13.2286C5.48057 12.3774 5.177 11.3767 5.177 10.353C5.17687 9.67319 5.31065 9.00002 5.57071 8.37192C5.83077 7.74383 6.21201 7.17311 6.69266 6.69237C7.17331 6.21163 7.74395 5.83028 8.372 5.5701C9.00005 5.30991 9.67319 5.177 10.353 5.177ZM17.082 4.917C17.0822 5.17297 17.0065 5.42325 16.8644 5.63618C16.7223 5.84911 16.5203 6.01512 16.2839 6.11321C16.0475 6.21131 15.7872 6.23707 15.5362 6.18726C15.2851 6.13744 15.0544 6.01428 14.8734 5.83335C14.6923 5.65242 14.5689 5.42185 14.5189 5.17081C14.4689 4.91978 14.4945 4.65954 14.5924 4.42304C14.6903 4.18653 14.8562 3.98438 15.069 3.84215C15.2818 3.69992 15.532 3.624 15.788 3.624C16.1307 3.62531 16.459 3.7619 16.7015 4.00404C16.9441 4.24619 17.0802 4.5743 17.082 4.917ZM10.353 2.07C7.791 2.07 7.374 2.077 6.182 2.13C5.5467 2.13887 4.91749 2.25518 4.321 2.474C3.89753 2.62869 3.51437 2.87684 3.2 3.2C2.87616 3.51341 2.6273 3.89593 2.472 4.319C2.25311 4.91544 2.13713 5.54472 2.129 6.18C2.075 7.323 2.069 7.722 2.069 10.351C2.069 12.913 2.076 13.33 2.129 14.522C2.13763 15.1572 2.2536 15.7864 2.472 16.383C2.63375 16.8028 2.88168 17.1841 3.19981 17.5022C3.51793 17.8203 3.89919 18.0682 4.319 18.23C4.9164 18.4494 5.54664 18.5661 6.183 18.575C7.326 18.629 7.725 18.635 10.354 18.635C12.916 18.635 13.333 18.628 14.525 18.575C15.1602 18.566 15.7893 18.4501 16.386 18.232C16.8056 18.0705 17.1868 17.8228 17.5049 17.5051C17.823 17.1873 18.071 16.8064 18.233 16.387C18.452 15.7899 18.5683 15.16 18.577 14.524C18.631 13.381 18.637 12.981 18.637 10.353C18.637 7.791 18.63 7.374 18.577 6.182C18.5679 5.54641 18.4516 4.91691 18.233 4.32C18.0757 3.89645 17.8252 3.51367 17.5 3.2C17.1867 2.87597 16.8042 2.62708 16.381 2.472C15.7845 2.25319 15.1553 2.13721 14.52 2.129C13.381 2.077 12.982 2.07 10.353 2.07ZM10.353 0C13.165 0 13.516 0.01 14.621 0.062C15.4798 0.0794901 16.3294 0.242117 17.134 0.543C17.8253 0.801987 18.4514 1.20958 18.968 1.737C19.4945 2.25435 19.9019 2.8802 20.162 3.571C20.4621 4.37577 20.6247 5.22529 20.643 6.084C20.692 7.184 20.705 7.539 20.705 10.352C20.705 13.165 20.695 13.515 20.643 14.62C20.6251 15.4787 20.4624 16.3283 20.162 17.133C19.8962 17.8209 19.4895 18.4456 18.968 18.967C18.4466 19.4885 17.8219 19.8952 17.134 20.161C16.3292 20.4611 15.4797 20.6237 14.621 20.642C13.521 20.691 13.166 20.704 10.353 20.704C7.54 20.704 7.189 20.694 6.085 20.642C5.22626 20.624 4.37669 20.4614 3.572 20.161C2.8841 19.8952 2.25937 19.4886 1.73791 18.9671C1.21645 18.4456 0.809778 17.8209 0.544 17.133C0.243506 16.3283 0.0808916 15.4788 0.063 14.62C0.014 13.516 0 13.165 0 10.352C0 7.539 0.01 7.188 0.062 6.084C0.079375 5.22519 0.242006 4.37552 0.543 3.571C0.802484 2.87967 1.2104 2.25363 1.738 1.737C2.25551 1.21047 2.88177 0.803321 3.573 0.544C4.37764 0.243432 5.22724 0.0808153 6.086 0.063C7.19 0.013 7.541 0 10.353 0Z" fill="white"/>
</svg>
