<svg width="2000" height="900" viewBox="0 0 2000 900" fill="none" xmlns="http://www.w3.org/2000/svg">
<g clip-path="url(#clip0_1_222)">
<path d="M2000 0H0V900H2000V0Z" fill="#C4151C"/>
<path d="M1620.9 167.798C1828.09 167.798 1996.05 -0.161926 1996.05 -207.351C1996.05 -414.54 1828.09 -582.5 1620.9 -582.5C1413.71 -582.5 1245.75 -414.54 1245.75 -207.351C1245.75 -0.161926 1413.71 167.798 1620.9 167.798Z" stroke="#FCFCFC" stroke-width="7"/>
<path d="M614.399 1559.3C1008.81 1559.3 1328.55 1239.56 1328.55 845.149C1328.55 450.735 1008.81 131 614.399 131C219.985 131 -99.75 450.735 -99.75 845.149C-99.75 1239.56 219.985 1559.3 614.399 1559.3Z" stroke="#E3545A" stroke-width="2"/>
</g>
<defs>
<clipPath id="clip0_1_222">
<rect width="2000" height="900" fill="white"/>
</clipPath>
</defs>
</svg>
