<svg width="2000" height="1273" viewBox="0 0 2000 1273" fill="none" xmlns="http://www.w3.org/2000/svg">
<g clip-path="url(#clip0_1_234)">
<path d="M2000 0H0V1273H2000V0Z" fill="white"/>
<g style="mix-blend-mode:multiply" opacity="0.2">
<path d="M1405.82 967.587C1540.52 967.587 1649.73 858.385 1649.73 723.677C1649.73 588.969 1540.52 479.767 1405.82 479.767C1271.11 479.767 1161.91 588.969 1161.91 723.677C1161.91 858.385 1271.11 967.587 1405.82 967.587Z" stroke="#707070"/>
</g>
<path d="M1640.35 1460.23C1856.57 1460.23 2031.86 1284.94 2031.86 1068.72C2031.86 852.495 1856.57 677.211 1640.35 677.211C1424.13 677.211 1248.84 852.495 1248.84 1068.72C1248.84 1284.94 1424.13 1460.23 1640.35 1460.23Z" stroke="#C4151C" stroke-width="6"/>
<g style="mix-blend-mode:multiply" opacity="0.2">
<path d="M1085.88 1670.09C1303.48 1670.09 1479.89 1493.69 1479.89 1276.08C1479.89 1058.48 1303.48 882.075 1085.88 882.075C868.275 882.075 691.872 1058.48 691.872 1276.08C691.872 1493.69 868.275 1670.09 1085.88 1670.09Z" stroke="#707070"/>
</g>
<g style="mix-blend-mode:multiply" opacity="0.2">
<path d="M1673.68 1492.81C1929.04 1492.81 2136.04 1285.81 2136.04 1030.45C2136.04 775.101 1929.04 568.095 1673.68 568.095C1418.33 568.095 1211.32 775.101 1211.32 1030.45C1211.32 1285.81 1418.33 1492.81 1673.68 1492.81Z" stroke="#707070"/>
</g>
<g style="mix-blend-mode:multiply" opacity="0.2">
<path d="M1628.85 639.199C1811.23 639.199 1959.07 491.356 1959.07 308.983C1959.07 126.61 1811.23 -21.233 1628.85 -21.233C1446.48 -21.233 1298.64 126.61 1298.64 308.983C1298.64 491.356 1446.48 639.199 1628.85 639.199Z" stroke="#707070"/>
</g>
<g style="mix-blend-mode:multiply" opacity="0.2">
<path d="M1454.98 893.075C1579.66 893.075 1680.74 791.929 1680.74 667.16C1680.74 542.391 1579.66 441.245 1454.98 441.245C1330.3 441.245 1229.22 542.391 1229.22 667.16C1229.22 791.929 1330.3 893.075 1454.98 893.075Z" stroke="#707070"/>
</g>
<g style="mix-blend-mode:multiply" opacity="0.2">
<path d="M1782.98 1392.07C1907.66 1392.07 2008.74 1290.93 2008.74 1166.16C2008.74 1041.39 1907.66 940.245 1782.98 940.245C1658.3 940.245 1557.22 1041.39 1557.22 1166.16C1557.22 1290.93 1658.3 1392.07 1782.98 1392.07Z" stroke="#707070"/>
</g>
<g style="mix-blend-mode:multiply" opacity="0.2">
<path d="M1116.83 959.697C1150.24 959.697 1177.32 932.613 1177.32 899.204C1177.32 865.795 1150.24 838.711 1116.83 838.711C1083.42 838.711 1056.34 865.795 1056.34 899.204C1056.34 932.613 1083.42 959.697 1116.83 959.697Z" stroke="#707070"/>
</g>
<g style="mix-blend-mode:multiply" opacity="0.2">
<path d="M1287.77 1036.16C1387.58 1036.16 1468.49 955.246 1468.49 855.435C1468.49 755.624 1387.58 674.711 1287.77 674.711C1187.95 674.711 1107.04 755.624 1107.04 855.435C1107.04 955.246 1187.95 1036.16 1287.77 1036.16Z" stroke="#707070"/>
</g>
<g style="mix-blend-mode:multiply" opacity="0.2">
<path d="M1494.53 1327.89C1703.37 1327.89 1872.68 1158.59 1872.68 949.746C1872.68 740.9 1703.37 571.597 1494.53 571.597C1285.68 571.597 1116.38 740.9 1116.38 949.746C1116.38 1158.59 1285.68 1327.89 1494.53 1327.89Z" stroke="#707070"/>
</g>
</g>
<defs>
<clipPath id="clip0_1_234">
<rect width="2000" height="1273" fill="white"/>
</clipPath>
</defs>
</svg>
