<svg width="2000" height="1207" viewBox="0 0 2000 1207" fill="none" xmlns="http://www.w3.org/2000/svg">
<g clip-path="url(#clip0_1_270)">
<path d="M2000 0H0V1207H2000V0Z" fill="#E3E3E3"/>
<path d="M1580.59 1847.03C2194.36 1847.03 2691.92 1349.46 2691.92 735.691C2691.92 121.917 2194.36 -375.645 1580.59 -375.645C966.812 -375.645 469.25 121.917 469.25 735.691C469.25 1349.46 966.812 1847.03 1580.59 1847.03Z" stroke="white"/>
<path d="M322.877 425.609C669.506 425.609 950.504 144.611 950.504 -202.018C950.504 -548.647 669.506 -829.645 322.877 -829.645C-23.7518 -829.645 -304.75 -548.647 -304.75 -202.018C-304.75 144.611 -23.7518 425.609 322.877 425.609Z" stroke="white"/>
<path d="M2395.2 1899.26C3117.01 1899.26 3702.15 1314.12 3702.15 592.308C3702.15 -129.502 3117.01 -714.644 2395.2 -714.644C1673.39 -714.644 1088.25 -129.502 1088.25 592.308C1088.25 1314.12 1673.39 1899.26 2395.2 1899.26Z" stroke="white"/>
<path d="M-529.176 1182.5C-203.011 1182.5 61.3979 918.094 61.3979 591.929C61.3979 265.764 -203.011 1.35498 -529.176 1.35498C-855.341 1.35498 -1119.75 265.764 -1119.75 591.929C-1119.75 918.094 -855.341 1182.5 -529.176 1182.5Z" stroke="white"/>
<path d="M1336.04 2569.03C2091.44 2569.03 2703.82 1957.07 2703.82 1202.19C2703.82 447.309 2091.44 -164.644 1336.04 -164.644C580.628 -164.644 -31.75 447.309 -31.75 1202.19C-31.75 1957.07 580.628 2569.03 1336.04 2569.03Z" stroke="white"/>
<path d="M940.462 1076.78C1273.61 1076.78 1543.67 806.713 1543.67 473.568C1543.67 140.423 1273.61 -129.644 940.462 -129.644C607.317 -129.644 337.25 140.423 337.25 473.568C337.25 806.713 607.317 1076.78 940.462 1076.78Z" stroke="white"/>
<path d="M1127.94 762.733C1282.96 762.733 1408.63 637.064 1408.63 482.044C1408.63 327.024 1282.96 201.355 1127.94 201.355C972.919 201.355 847.25 327.024 847.25 482.044C847.25 637.064 972.919 762.733 1127.94 762.733Z" stroke="white"/>
<path d="M1328.69 2114.23C2003.27 2114.23 2550.12 1567.37 2550.12 892.792C2550.12 218.211 2003.27 -328.645 1328.69 -328.645C654.106 -328.645 107.25 218.211 107.25 892.792C107.25 1567.37 654.106 2114.23 1328.69 2114.23Z" stroke="white"/>
<path d="M925.624 1698.1C1485.3 1698.1 1939 1244.4 1939 684.729C1939 125.058 1485.3 -328.645 925.624 -328.645C365.953 -328.645 -87.75 125.058 -87.75 684.729C-87.75 1244.4 365.953 1698.1 925.624 1698.1Z" stroke="white"/>
<path d="M2600.09 2208.31C3106.45 2208.31 3516.93 1797.54 3516.93 1290.83C3516.93 784.124 3106.45 373.355 2600.09 373.355C2093.73 373.355 1683.25 784.124 1683.25 1290.83C1683.25 1797.54 2093.73 2208.31 2600.09 2208.31Z" stroke="white"/>
<path d="M507.892 947.903C800.958 947.903 1038.53 710.491 1038.53 417.629C1038.53 124.767 800.958 -112.645 507.892 -112.645C214.827 -112.645 -22.75 124.767 -22.75 417.629C-22.75 710.491 214.827 947.903 507.892 947.903Z" stroke="white"/>
<path d="M763.59 1137.04C1091.28 1137.04 1356.93 871.388 1356.93 543.695C1356.93 216.002 1091.28 -49.645 763.59 -49.645C435.897 -49.645 170.25 216.002 170.25 543.695C170.25 871.388 435.897 1137.04 763.59 1137.04Z" stroke="white"/>
<path d="M2112.32 1992.5C2826.46 1992.5 3405.39 1413.57 3405.39 699.426C3405.39 -14.7173 2826.46 -593.645 2112.32 -593.645C1398.18 -593.645 819.25 -14.7173 819.25 699.426C819.25 1413.57 1398.18 1992.5 2112.32 1992.5Z" stroke="white"/>
<path d="M1425.79 614.439C1771.82 614.439 2052.33 333.927 2052.33 -12.103C2052.33 -358.133 1771.82 -638.645 1425.79 -638.645C1079.76 -638.645 799.25 -358.133 799.25 -12.103C799.25 333.927 1079.76 614.439 1425.79 614.439Z" stroke="white"/>
<path d="M733.351 1391.56C996.294 1391.56 1209.45 1178.4 1209.45 915.457C1209.45 652.514 996.294 439.356 733.351 439.356C470.408 439.356 257.25 652.514 257.25 915.457C257.25 1178.4 470.408 1391.56 733.351 1391.56Z" stroke="white"/>
<path d="M1011.29 1775.43C1667.97 1775.43 2200.32 1243.08 2200.32 586.39C2200.32 -70.2959 1667.97 -602.645 1011.29 -602.645C354.599 -602.645 -177.75 -70.2959 -177.75 586.39C-177.75 1243.08 354.599 1775.43 1011.29 1775.43Z" stroke="white"/>
<path d="M1085.03 1494.31C1636.09 1494.31 2082.82 1047.27 2082.82 495.831C2082.82 -55.612 1636.09 -502.645 1085.03 -502.645C533.973 -502.645 87.25 -55.612 87.25 495.831C87.25 1047.27 533.973 1494.31 1085.03 1494.31Z" stroke="white"/>
<path d="M863.532 1667.62C1380.63 1667.62 1799.81 1248.72 1799.81 731.987C1799.81 215.252 1380.63 -203.645 863.532 -203.645C346.438 -203.645 -72.75 215.252 -72.75 731.987C-72.75 1248.72 346.438 1667.62 863.532 1667.62Z" stroke="white"/>
<path d="M690.448 532.751C978.298 532.751 1211.65 299.403 1211.65 11.553C1211.65 -276.297 978.298 -509.645 690.448 -509.645C402.598 -509.645 169.25 -276.297 169.25 11.553C169.25 299.403 402.598 532.751 690.448 532.751Z" stroke="white"/>
<path d="M587.68 869.215C1056.81 869.215 1437.11 488.912 1437.11 19.785C1437.11 -449.342 1056.81 -829.645 587.68 -829.645C118.553 -829.645 -261.75 -449.342 -261.75 19.785C-261.75 488.912 118.553 869.215 587.68 869.215Z" stroke="white"/>
<path d="M2442.41 1217.68C2976.01 1217.68 3408.58 785.115 3408.58 251.518C3408.58 -282.079 2976.01 -714.645 2442.41 -714.645C1908.82 -714.645 1476.25 -282.079 1476.25 251.518C1476.25 785.115 1908.82 1217.68 2442.41 1217.68Z" stroke="white"/>
<path d="M326.613 1672.08C787.971 1672.08 1161.98 1298.08 1161.98 836.718C1161.98 375.36 787.971 1.35498 326.613 1.35498C-134.745 1.35498 -508.75 375.36 -508.75 836.718C-508.75 1298.08 -134.745 1672.08 326.613 1672.08Z" stroke="white"/>
<path d="M449.226 234.115C770.09 234.115 1030.2 -26.1777 1030.2 -347.265C1030.2 -668.352 770.09 -928.645 449.226 -928.645C128.362 -928.645 -131.75 -668.352 -131.75 -347.265C-131.75 -26.1777 128.362 234.115 449.226 234.115Z" stroke="white"/>
<path d="M1729.26 2057.83C2343.41 2057.83 2841.27 1560.32 2841.27 946.595C2841.27 332.874 2343.41 -164.645 1729.26 -164.645C1115.11 -164.645 617.25 332.874 617.25 946.595C617.25 1560.32 1115.11 2057.83 1729.26 2057.83Z" stroke="white"/>
<path d="M1597.13 1068.12C1927.89 1068.12 2196.02 799.993 2196.02 469.239C2196.02 138.484 1927.89 -129.645 1597.13 -129.645C1266.38 -129.645 998.25 138.484 998.25 469.239C998.25 799.993 1266.38 1068.12 1597.13 1068.12Z" stroke="white"/>
<path d="M1418.3 697.447C1555.29 697.447 1666.34 586.393 1666.34 449.401C1666.34 312.409 1555.29 201.355 1418.3 201.355C1281.3 201.355 1170.25 312.409 1170.25 449.401C1170.25 586.393 1281.3 697.447 1418.3 697.447Z" stroke="white"/>
<path d="M195.147 1579.15C721.97 1579.15 1149.04 1152.07 1149.04 625.252C1149.04 98.4292 721.97 -328.645 195.147 -328.645C-331.676 -328.645 -758.75 98.4292 -758.75 625.252C-758.75 1152.07 -331.676 1579.15 195.147 1579.15Z" stroke="white"/>
<path d="M19.491 601.837C276.437 601.837 484.732 393.542 484.732 136.596C484.732 -120.35 276.437 -328.645 19.491 -328.645C-237.454 -328.645 -445.75 -120.35 -445.75 136.596C-445.75 393.542 -237.454 601.837 19.491 601.837Z" stroke="white"/>
<path d="M1219.63 1564.11C1528.56 1564.11 1779 1313.67 1779 1004.73C1779 695.797 1528.56 445.355 1219.63 445.355C910.692 445.355 660.25 695.797 660.25 1004.73C660.25 1313.67 910.692 1564.11 1219.63 1564.11Z" stroke="white"/>
<path d="M1140.7 1250.87C1382.85 1250.87 1579.16 1054.43 1579.16 812.113C1579.16 569.794 1382.85 373.355 1140.7 373.355C898.552 373.355 702.25 569.794 702.25 812.113C702.25 1054.43 898.552 1250.87 1140.7 1250.87Z" stroke="white"/>
<path d="M1555.66 623.669C1759.13 623.669 1924.08 458.839 1924.08 255.512C1924.08 52.1845 1759.13 -112.645 1555.66 -112.645C1352.19 -112.645 1187.25 52.1845 1187.25 255.512C1187.25 458.839 1352.19 623.669 1555.66 623.669Z" stroke="white"/>
<path d="M550.866 1351.59C1088.03 1351.59 1523.48 916.132 1523.48 378.971C1523.48 -158.19 1088.03 -593.645 550.866 -593.645C13.705 -593.645 -421.75 -158.19 -421.75 378.971C-421.75 916.132 13.705 1351.59 550.866 1351.59Z" stroke="white"/>
<path d="M1348.03 746.907C1730.64 746.907 2040.8 436.741 2040.8 54.131C2040.8 -328.479 1730.64 -638.645 1348.03 -638.645C965.416 -638.645 655.25 -328.479 655.25 54.131C655.25 436.741 965.416 746.907 1348.03 746.907Z" stroke="white"/>
<path d="M1249.64 1598.13C1857.36 1598.13 2350.02 1105.47 2350.02 497.741C2350.02 -109.985 1857.36 -602.645 1249.64 -602.645C641.91 -602.645 149.25 -109.985 149.25 497.741C149.25 1105.47 641.91 1598.13 1249.64 1598.13Z" stroke="white"/>
<path d="M1530.89 1233.83C2010.07 1233.83 2398.53 845.111 2398.53 365.595C2398.53 -113.921 2010.07 -502.645 1530.89 -502.645C1051.7 -502.645 663.25 -113.921 663.25 365.595C663.25 845.111 1051.7 1233.83 1530.89 1233.83Z" stroke="white"/>
<path d="M1652.7 2185.6C2312.93 2185.6 2848.15 1650.75 2848.15 990.976C2848.15 331.205 2312.93 -203.645 1652.7 -203.645C992.472 -203.645 457.25 331.205 457.25 990.976C457.25 1650.75 992.472 2185.6 1652.7 2185.6Z" stroke="white"/>
<path d="M1385.24 1184.34C1853.03 1184.34 2232.24 805.131 2232.24 337.349C2232.24 -130.433 1853.03 -509.645 1385.24 -509.645C917.462 -509.645 538.25 -130.433 538.25 337.349C538.25 805.131 917.462 1184.34 1385.24 1184.34Z" stroke="white"/>
</g>
<defs>
<clipPath id="clip0_1_270">
<rect width="2000" height="1207" fill="white"/>
</clipPath>
</defs>
</svg>
