<svg width="22" height="18" viewBox="0 0 22 18" fill="none" xmlns="http://www.w3.org/2000/svg">
<path d="M21.1994 2.86501C21.1079 2.50725 20.9327 2.17634 20.6883 1.89956C20.4438 1.62277 20.1371 1.40802 19.7934 1.273C16.4664 -0.0119971 11.1704 4.03505e-06 10.8794 4.03505e-06C10.5884 4.03505e-06 5.29243 -0.0119971 1.96543 1.273C1.62151 1.40767 1.3146 1.62231 1.07011 1.89915C0.825613 2.17599 0.650559 2.50708 0.559433 2.86501C0.142311 4.72703 -0.042763 6.63352 0.00843268 8.541C-0.043091 10.4484 0.141646 12.3549 0.558432 14.217C0.649718 14.575 0.824818 14.9061 1.06928 15.1831C1.31375 15.4601 1.62057 15.675 1.96443 15.81C5.15143 17.04 10.1404 17.082 10.8144 17.082H10.9424C11.6164 17.082 16.6074 17.039 19.7924 15.81C20.1361 15.6747 20.4428 15.4597 20.6872 15.1828C20.9316 14.9058 21.1068 14.5748 21.1984 14.217C21.6151 12.3549 21.7998 10.4484 21.7484 8.541C21.8 6.63356 21.6152 4.72707 21.1984 2.86501H21.1994ZM14.0424 9.174L10.1604 11.892C10.0441 11.9731 9.90776 12.0209 9.76622 12.0302C9.62467 12.0394 9.48329 12.0098 9.35736 11.9445C9.23143 11.8793 9.12574 11.7808 9.05173 11.6598C8.97771 11.5388 8.93819 11.3998 8.93743 11.258V5.82301C8.93755 5.68109 8.97653 5.54191 9.05015 5.42059C9.12377 5.29926 9.22921 5.2004 9.35504 5.13476C9.48086 5.06912 9.62226 5.03919 9.76389 5.04823C9.90552 5.05726 10.042 5.10491 10.1584 5.186L14.0404 7.90001C14.1428 7.97143 14.2263 8.0665 14.284 8.17714C14.3417 8.28778 14.3719 8.41072 14.3719 8.5355C14.3719 8.66029 14.3417 8.78323 14.284 8.89387C14.2263 9.00451 14.1428 9.09958 14.0404 9.17101L14.0424 9.174Z" fill="white"/>
</svg>
